<svg xmlns="http://www.w3.org/2000/svg" version="1.1" xmlns:xlink="http://www.w3.org/1999/xlink" xmlns:svgjs="http://svgjs.dev/svgjs" width="100%" height="100%" viewBox="0 0 1000 600"><rect width="1000" height="600" x="0" y="0" fill="#008c67"/><g><circle r="166.66666666666666" cx="350.83544413248694" cy="373.0576874726968" fill="#c8553d" transform="matrix(0.6787250424368908,0,0,0.6787250424368907,0,46.7963768962464)"/><path d="M345.28698662859443 431.1359284750286L345.28698662859443 431.1359284750286Q338.71810885028805 431.1359284750286 331.4477004354635 429.9879692516353Q324.1772920206389 428.8400100282419 317.58715573819563 426.6291255980029L317.58715573819563 426.6291255980029L317.58715573819563 415.99987352954594Q322.3278021607274 417.53048582740377 327.1959996080807 418.55089402597565Q332.06419705543397 419.5925607286844 336.6560339490074 420.08150632383337Q341.2478708425808 420.5917104231193 345.3720206451421 420.5917104231193L345.3720206451421 420.5917104231193Q354.85331349020566 420.5917104231193 361.06079669818456 418.210757959785Q367.2682799061634 415.82980549645066 370.24447048533136 411.2167100987403Q373.22066106449927 406.58235619689304 373.22066106449927 399.75837636894374L373.22066106449927 399.75837636894374Q373.22066106449927 391.1274236893567 368.13987857577683 386.5568452999202Q363.05909608705446 382.0075254146206 350.81419770419205 378.79749128994666L350.81419770419205 378.79749128994666L344.6917485127608 377.1818449755412Q330.21470719552246 373.52538226399196 323.0293327972456 366.0636473119352Q315.82269989483177 358.60191235987844 315.82269989483177 346.35701397701604L315.82269989483177 346.35701397701604Q315.82269989483177 331.7311631308192 326.0055233764135 323.3553125008752Q336.18834685799527 314.97946187093106 356.46895980461113 314.97946187093106L356.46895980461113 314.97946187093106Q362.82525254154837 314.97946187093106 369.2028037826226 315.85106054054455Q375.60161352783365 316.72265921015804 380.8737225537883 318.3383055245635L380.8737225537883 318.3383055245635L380.8737225537883 329.0525916095681Q375.07015092441077 327.22436025379346 368.94770173297957 326.37402008831697Q362.82525254154837 325.52367992284036 356.85161287907556 325.52367992284036L356.85161287907556 325.52367992284036Q346.98766695954754 325.52367992284036 340.6738912308841 327.9046323861747Q334.36011550222065 330.2855848495091 331.36266641891586 334.79238772653486Q328.38647583974785 339.2991906035606 328.38647583974785 345.6554833404978L328.38647583974785 345.6554833404978Q328.38647583974785 354.01007546630495 333.04208824573203 358.60191235987844Q337.7189591558531 363.1937492534518 349.1985513897866 366.25497384916736L349.1985513897866 366.25497384916736L355.4060345977655 367.7855861470252Q365.8014431207164 370.4641576682764 372.54038893211805 374.6308244791115Q379.2793347435197 378.79749128994666 382.5744028847414 384.81364796069323Q385.84821252182616 390.8085461273029 385.84821252182616 398.9930702200148L385.84821252182616 398.9930702200148Q385.84821252182616 409.2609277181443 381.10756609929433 416.40378510814725Q376.36691967676256 423.56790100228733 367.28953841030034 427.35191473865797Q358.233415647975 431.1359284750286 345.28698662859443 431.1359284750286ZM356.6177693335695 448.05769776801213L345.13817709963604 448.05769776801213L345.13817709963604 428.07470387931306L356.6177693335695 427.5432412758901L356.6177693335695 448.05769776801213ZM356.6177693335695 317.57299937563454L345.13817709963604 317.57299937563454L345.13817709963604 298.0576925779476L356.6177693335695 298.0576925779476L356.6177693335695 317.57299937563454Z " fill="#eee0cb" transform="matrix(0.6787250424368908,0,0,0.6787250424368907,0,46.7963768962464)"/><path d="M627.2068780192799 415.76575122186654L627.2068780192799 415.76575122186654Q622.9521280983656 415.76575122186654 618.5769607268595 415.5449858957814Q614.2017933553534 415.32422056969614 609.8065564087487 414.9629682179205Q605.3912498870452 414.60171586614473 600.8354563396513 414.0196981882838L600.8354563396513 414.0196981882838L600.8354563396513 309.6980468254916Q605.2507628613547 308.7547767958549 609.9069042842419 308.11255039269815Q614.5630457071292 307.4502544144426 619.6205786319895 307.08900206266685Q624.6781115568497 306.7277497108911 630.2574534342749 306.7277497108911L630.2574534342749 306.7277497108911Q644.6272692049097 306.7277497108911 653.6987171495002 309.87867300137947Q662.7701650940909 313.0295962918678 667.024915015005 319.3515124479431Q671.2796649359193 325.67342860401845 671.2796649359193 335.266685501174L671.2796649359193 335.266685501174Q671.2796649359193 341.40797548136146 669.0519420999689 346.6461345821096Q666.8041496889199 351.88429368285773 661.9673820901448 355.43660847531913Q657.1306144913697 358.9688536926819 649.3235497779941 360.19309777369966L649.3235497779941 360.19309777369966L649.4640368036846 359.189619018767Q662.0476603905395 360.63462842586995 668.1889503707268 367.63891013529945Q674.3302403509143 374.64319184472896 674.3302403509143 385.78180602448066L674.3302403509143 385.78180602448066Q674.3302403509143 393.0670617852913 671.7613347382869 398.6664732378152Q669.1924291256595 404.2658846903391 663.5930176731356 408.05903438398417Q657.9936062206118 411.8521840776294 649.0024365764157 413.81900243729734Q640.0112669322198 415.76575122186654 627.2068780192799 415.76575122186654ZM629.5951574560194 406.4333988009934L629.5951574560194 406.4333988009934Q642.2389897681701 406.4333988009934 649.5844542542766 404.12539766464846Q656.9098491652845 401.8173965283035 660.0607724557728 397.1612551054163Q663.1916261711626 392.50511368252904 663.1916261711626 385.420553672705L663.1916261711626 385.420553672705Q663.1916261711626 374.8037484455181 656.5084576633114 369.7462155206579Q649.8252891554605 364.6886825957976 635.3751950844312 364.6886825957976L635.3751950844312 364.6886825957976L610.7498264383853 364.6886825957976L610.7498264383853 355.215843149234L633.2879592741713 355.215843149234Q642.9614944717215 355.215843149234 648.8619495507252 353.04832903857954Q654.7423350546301 350.8808149279252 657.3714493925536 346.5457867066164Q660.0206333055755 342.2107584853076 660.0206333055755 335.7082161533444L660.0206333055755 335.7082161533444Q660.0206333055755 325.2318979518481 653.4779518234151 320.63596525425686Q646.9352703412546 316.06010213176427 631.2609321892076 316.06010213176427L631.2609321892076 316.06010213176427Q625.4006162604012 316.06010213176427 620.9251010134018 316.46149363373723Q616.4495857664024 316.84281556061165 612.3955315964747 317.5653202641631L612.3955315964747 317.5653202641631L612.3955315964747 405.4299200460609Q616.590072792093 406.0119377239218 620.744474837514 406.23270305000693Q624.8988768829349 406.4333988009934 629.5951574560194 406.4333988009934ZM714.7102254494018 416.1270035736423L714.7102254494018 416.1270035736423Q707.4049001134925 416.1270035736423 701.7854190858701 413.4577500855216Q696.1458684831489 410.7684270223022 692.8945973171673 404.70741534250936Q689.6433261511856 398.6464036627165 689.6433261511856 388.4510595126014L689.6433261511856 388.4510595126014L689.6433261511856 336.4307208568958L701.2034014080092 336.4307208568958L701.2034014080092 387.9493201351351Q701.2034014080092 397.984107684461 705.6789166550085 401.9177444037968Q710.1544319020078 405.8714506982312 717.2389919118319 405.8714506982312L717.2389919118319 405.8714506982312Q720.7712371291947 405.8714506982312 724.6446651232344 404.787693642904Q728.5180931172744 403.7039365875767 732.1306166350316 401.3758658761331Q735.7431401527889 399.06786473978815 738.5528806666002 395.3951324967349L738.5528806666002 395.3951324967349L738.5528806666002 336.4307208568958L750.1129559234237 336.4307208568958L750.1129559234237 414.8224811922299L740.3591424254788 414.8224811922299L739.5563594215329 406.23270305000693L738.8338547179814 406.23270305000693Q733.9368783939103 411.12967937407797 727.7153101133282 413.6383762614094Q721.4937418327462 416.1270035736423 714.7102254494018 416.1270035736423ZM798.6612580870625 416.18721229893816L798.6612580870625 416.18721229893816Q790.1316886701354 416.18721229893816 783.1274069607059 412.3338538799971Q776.1231252512764 408.46042588595725 771.9687232058556 399.9308564690302Q767.8143211604346 391.4213566272019 767.8143211604346 377.2522366075537L767.8143211604346 377.2522366075537Q767.8143211604346 363.0831165879055 772.3299755576312 353.77083374213106Q776.8456299548279 344.4585508963566 785.656173423136 339.822479048568Q794.4667168914442 335.2064767758781 807.3313145296801 335.2064767758781L807.3313145296801 335.2064767758781Q810.6628639960562 335.2064767758781 813.9743438873337 335.48745082725924Q817.30589335371 335.788494453739 820.1156338675213 336.20995553081065L820.1156338675213 336.20995553081065L820.1156338675213 298.0576932682735L831.6757091243447 298.0576932682735L831.6757091243447 414.8224811922299L821.8616869011039 414.8224811922299L821.0589038971578 406.37319007569744L820.2761904683105 406.37319007569744Q816.8041539762437 410.6279399966117 811.2649512490158 413.41761093532426Q805.7458180968865 416.18721229893816 798.6612580870625 416.18721229893816ZM801.2703028498872 406.23270305000693L801.2703028498872 406.23270305000693Q806.5486011008326 406.23270305000693 811.6061340256929 403.9046323385633Q816.6636669505532 401.59663120221836 820.1156338675213 396.53909827735805L820.1156338675213 396.53909827735805L820.1156338675213 346.04404732915003Q817.5266586797951 345.3817513508946 814.0546221877283 345.02049899911884Q810.5825856956616 344.6592466473431 807.1908275039895 344.6592466473431L807.1908275039895 344.6592466473431Q793.5435164369062 344.6592466473431 786.5593043025755 352.044850283647Q779.5951617433432 359.41038434485216 779.5951617433432 376.24875785262105L779.5951617433432 376.24875785262105Q779.5951617433432 387.8088331094445 782.3647631069572 394.3314450165064Q785.1544340456697 400.87412649866684 790.0313407946421 403.54337998678756Q794.9082475436145 406.23270305000693 801.2703028498872 406.23270305000693ZM877.4945490745669 448.05769755559726L877.4945490745669 448.05769755559726Q872.0757637979308 448.05769755559726 865.8943346675461 447.154566676158Q859.7129055371613 446.2514357967187 854.37439856092 444.52545233823463L854.37439856092 444.52545233823463L854.37439856092 434.83184756558575Q860.5156885411074 436.7183876248591 866.1150999936312 437.6215185042983Q871.7145114461551 438.52464938373765 876.8322530963113 438.52464938373765L876.8322530963113 438.52464938373765Q889.5563637088566 438.52464938373765 895.6173753886495 433.0657249569044Q901.6984566435409 427.6068005300711 901.6984566435409 414.180254789073L901.6984566435409 414.180254789073L901.6984566435409 406.51367710138805L901.0361606652854 406.51367710138805Q897.5039154479227 410.6279399966117 891.9847822957935 413.23698475943644Q886.4455795685654 415.8259599471625 879.3610195587415 415.8259599471625L879.3610195587415 415.8259599471625Q871.2127720686889 415.8259599471625 864.4091861102459 412.0328102535173Q857.6256697269015 408.2396605598721 853.5114068316778 399.75023029314235Q849.3770743613555 391.2608000264126 849.3770743613555 377.17195830715906L849.3770743613555 377.17195830715906Q849.3770743613555 356.078834878476 859.4720706359775 345.64265582717707Q869.5469973355007 335.2064767758781 889.1148330566863 335.2064767758781L889.1148330566863 335.2064767758781Q893.168887226614 335.2064767758781 897.4035675724294 335.62793785294974Q901.6181783431463 336.06946850512014 905.6722325130739 336.8722515090662Q909.706217107903 337.6549649379136 913.2585319003643 338.73872199324086L913.2585319003643 338.73872199324086L913.2585319003643 412.4342017554903Q913.2585319003643 431.52036767430815 904.2874318312671 439.78903261495276Q895.3364013372683 448.05769755559726 877.4945490745669 448.05769755559726ZM882.7728473255123 405.93165942352715L882.7728473255123 405.93165942352715Q888.0310760013591 405.93165942352715 893.1287480764166 403.7039365875767Q898.2264201514741 401.45614417652774 901.6984566435409 396.84014190383783L901.6984566435409 396.84014190383783L901.6984566435409 346.2648126552353Q899.0894118807162 345.60251667697975 895.5571666633535 345.1409164497107Q892.0048518708921 344.6592466473431 888.1916326021482 344.6592466473431L888.1916326021482 344.6592466473431Q875.0259913374326 344.6592466473431 868.1019879283978 352.0047111334497Q861.1579149442642 359.3301060444575 861.1579149442642 376.0882012518319L861.1579149442642 376.0882012518319Q861.1579149442642 387.72855480904997 863.9877250331741 394.2310971410131Q866.7974655469853 400.73363947297634 871.6743722959578 403.3426842358011Q876.5512790449303 405.93165942352715 882.7728473255123 405.93165942352715ZM968.0886110698813 416.18721229893816L968.0886110698813 416.18721229893816Q955.886309409901 416.18721229893816 947.6176444692563 412.0328102535173Q939.3289099535132 407.87840820809635 935.1544383329935 398.96751686429496Q930.9598971373754 390.0365559453949 930.9598971373754 375.5864618743655L930.9598971373754 375.5864618743655Q930.9598971373754 361.79866378159176 934.8132555563164 352.8275637124944Q938.6866835503562 343.8765332184957 945.8113827103776 339.5415049971869Q952.9160122953004 335.2064767758781 962.6698257932452 335.2064767758781L962.6698257932452 335.2064767758781Q972.2831522654994 335.2064767758781 979.0465990737451 339.5816441473842Q985.7899763068921 343.9367419437917 989.3422910993535 352.94798116308635Q992.8745363167162 361.9391508072824 992.8745363167162 375.8875055008453L992.8745363167162 375.8875055008453L992.8745363167162 379.41975071820804L937.2416741432534 379.41975071820804L937.2416741432534 371.5524772795365L984.3449668997893 371.5524772795365L981.816200437359 373.27846073802056Q981.816200437359 362.300403159058 979.5483384512114 355.7978608270949Q977.2604068899651 349.29531849513165 972.9655178188535 346.4454388311231Q968.6706287477422 343.5754895920159 962.5293387675547 343.5754895920159L962.5293387675547 343.5754895920159Q956.4683270877618 343.5754895920159 951.9727422656638 346.4052996809258Q947.4972270186644 349.215040194737 945.0888780068262 355.71758252670026Q942.6604594198893 362.2201248586635 942.6604594198893 373.27846073802056L942.6604594198893 373.27846073802056L942.6604594198893 377.3325149079482Q942.6604594198893 388.17008546122025 945.5906173842925 394.6324886429862Q948.5207753486957 401.094891824752 954.441300002798 403.94477148876064Q960.3618246569002 406.7946511527692 969.4734117516881 406.7946511527692L969.4734117516881 406.7946511527692Q973.9489269986876 406.7946511527692 978.7455554472652 405.97179857372447Q983.5622534709418 405.14894599467965 988.9810387475777 403.6236582871822L988.9810387475777 403.6236582871822L988.9810387475777 413.0964977337458Q983.3414881448565 414.68199416653937 978.243816069799 415.4446380202881Q973.1461439947415 416.18721229893816 968.0886110698813 416.18721229893816ZM1038.9743503183195 416.18721229893816L1038.9743503183195 416.18721229893816Q1026.9727444093255 416.18721229893816 1020.329715051672 410.02585274365214Q1013.6866856940181 403.84442361326734 1013.6866856940181 390.25732127148007L1013.6866856940181 390.25732127148007L1013.6866856940181 336.4307208568958L1015.5531561781928 307.8917850666129L1025.2467609508417 307.8917850666129L1025.2467609508417 388.37078121220674Q1025.2467609508417 398.28515131094076 1029.320884695868 402.2589271804738Q1033.415078015993 406.23270305000693 1041.5031167807497 406.23270305000693L1041.5031167807497 406.23270305000693Q1043.670630891404 406.23270305000693 1045.978632027749 405.89152027332983Q1048.286633164094 405.5704070717514 1051.0361649526094 404.9883893938905L1051.0361649526094 404.9883893938905L1051.0361649526094 414.74220289183523Q1048.1461461384033 415.46470759538676 1045.115640298507 415.8259599471625Q1042.0851344586104 416.18721229893816 1038.9743503183195 416.18721229893816ZM1049.8721295968876 345.9637690287555L998.9355479965091 345.9637690287555L998.9355479965091 336.4307208568958L1049.8721295968876 336.4307208568958L1049.8721295968876 345.9637690287555ZM1101.3907288751266 414.8224811922299L1089.6901665926125 414.8224811922299L1128.0631941812348 307.8917850666129L1144.600524062524 307.8917850666129L1182.9735516511464 414.8224811922299L1171.052224042547 414.8224811922299L1135.207962916355 313.45105736893953L1137.234990001319 313.45105736893953L1101.3907288751266 414.8224811922299ZM1162.8036286770011 380.2225337221542L1109.7798112663631 380.2225337221542L1112.5293430548784 370.30816362342017L1160.0540968884861 370.30816362342017L1162.8036286770011 380.2225337221542ZM1207.5387115718963 414.8224811922299L1195.978636315073 414.8224811922299L1195.978636315073 336.4307208568958L1207.5387115718963 336.4307208568958L1207.5387115718963 414.8224811922299ZM1201.7586739434846 319.37158202304175L1201.7586739434846 319.37158202304175Q1197.8451067992473 319.37158202304175 1195.798010139185 317.4649723886699Q1193.730843904024 315.55836275429795 1193.730843904024 312.1465349875271L1193.730843904024 312.1465349875271Q1193.730843904024 308.694568070559 1195.798010139185 306.7277497108911Q1197.8451067992473 304.7810009263219 1201.7586739434846 304.7810009263219L1201.7586739434846 304.7810009263219Q1205.652171512623 304.7810009263219 1207.7193377477843 306.7277497108911Q1209.7664344078466 308.694568070559 1209.7664344078466 312.1465349875271L1209.7664344078466 312.1465349875271Q1209.7664344078466 315.55836275429795 1207.7193377477843 317.4649723886699Q1205.652171512623 319.37158202304175 1201.7586739434846 319.37158202304175ZM1256.147222460831 416.18721229893816L1256.147222460831 416.18721229893816Q1247.6377226190025 416.18721229893816 1240.6133713344748 412.3338538799971Q1233.6090896250448 408.46042588595725 1229.454687579624 399.9308564690302Q1225.3002855342033 391.4213566272019 1225.3002855342033 377.2522366075537L1225.3002855342033 377.2522366075537Q1225.3002855342033 363.0831165879055 1229.8159399314 353.77083374213106Q1234.3315943285966 344.4585508963566 1243.1421377969045 339.822479048568Q1251.9727508403116 335.2064767758781 1264.8172789034488 335.2064767758781L1264.8172789034488 335.2064767758781Q1268.148828369825 335.2064767758781 1271.4803778362011 335.48745082725924Q1274.7918577274786 335.788494453739 1277.6216678163887 336.20995553081065L1277.6216678163887 336.20995553081065L1277.6216678163887 298.0576932682735L1289.1817430732121 298.0576932682735L1289.1817430732121 414.8224811922299L1279.3476512748725 414.8224811922299L1278.5448682709266 406.37319007569744L1277.7621548420789 406.37319007569744Q1274.290118350012 410.6279399966117 1268.770985197883 413.41761093532426Q1263.2317824706552 416.18721229893816 1256.147222460831 416.18721229893816ZM1258.7562672236559 406.23270305000693L1258.7562672236559 406.23270305000693Q1264.034565474601 406.23270305000693 1269.0920983994615 403.9046323385633Q1274.1496313243215 401.59663120221836 1277.6216678163887 396.53909827735805L1277.6216678163887 396.53909827735805L1277.6216678163887 346.04404732915003Q1275.0126230535639 345.3817513508946 1271.540586561497 345.02049899911884Q1268.0685500694303 344.6592466473431 1264.6767918777582 344.6592466473431L1264.6767918777582 344.6592466473431Q1251.0294808106746 344.6592466473431 1244.0452686763438 352.044850283647Q1237.081126117112 359.41038434485216 1237.081126117112 376.24875785262105L1237.081126117112 376.24875785262105Q1237.081126117112 387.8088331094445 1239.8707970558244 394.3314450165064Q1242.6403984194385 400.87412649866684 1247.517305168411 403.54337998678756Q1252.394211917383 406.23270305000693 1258.7562672236559 406.23270305000693Z " fill="#f5e9e2" transform="matrix(0.6787250424368908,0,0,0.6787250424368907,0,46.7963768962464)"/></g></svg>